<?xml version="1.0" encoding="iso-8859-1"?>
<!-- Generator: Adobe Illustrator 19.0.0, SVG Export Plug-In . SVG Version: 6.00 Build 0)  -->
<svg version="1.1" id="Capa_1" xmlns="http://www.w3.org/2000/svg" xmlns:xlink="http://www.w3.org/1999/xlink" x="0px" y="0px"
	 viewBox="0 0 224.698 224.698" style="enable-background:new 0 0 224.698 224.698;" xml:space="preserve">
<g>
	<path style="fill:#6CC04A;" d="M145.869,4.873c-24.476,0-44.318,19.841-44.318,44.317v83.116c0,24.477,19.842,44.318,44.318,44.318
		l0,0V4.873L145.869,4.873z"/>
	<g>
		<path style="fill:#9CD381;" d="M0,68.59c0,40.28,32.654,72.935,72.935,72.935c40.28,0,72.934-32.654,72.934-72.935H0z"/>
		<path style="fill:#6CC04A;" d="M27.046,68.59c0,25.344,20.544,45.889,45.888,45.889c25.343,0,45.888-20.545,45.888-45.889H27.046z
			"/>
	</g>
	<polygon style="fill:#8A6760;" points="145.869,32.2 224.698,32.2 145.869,41.081 	"/>
	<g>
		<circle style="fill:#FFFFFF;" cx="128.352" cy="31.587" r="9.426"/>
		<circle style="fill:#7F56C5;" cx="128.352" cy="31.587" r="4.713"/>
	</g>
	<g>
		<path style="fill:#9CD381;" d="M145.869,219.825c-23.859,0-43.201-19.342-43.201-43.2h43.201V219.825z"/>
		<path style="fill:#6CC04A;" d="M145.869,210.897c-18.929,0-34.273-15.345-34.273-34.272h34.273V210.897z"/>
	</g>
</g>
<g>
</g>
<g>
</g>
<g>
</g>
<g>
</g>
<g>
</g>
<g>
</g>
<g>
</g>
<g>
</g>
<g>
</g>
<g>
</g>
<g>
</g>
<g>
</g>
<g>
</g>
<g>
</g>
<g>
</g>
</svg>
